<?xml version="1.0" encoding="utf-8"?>
<!-- Generator: Adobe Illustrator 19.0.0, SVG Export Plug-In . SVG Version: 6.00 Build 0)  -->
<svg version="1.1" id="图层_1" xmlns="http://www.w3.org/2000/svg" xmlns:xlink="http://www.w3.org/1999/xlink" x="0px" y="0px"
	 viewBox="0 0 561 395.3" style="enable-background:new 0 0 561 395.3;" xml:space="preserve">
<style type="text/css">
	.st0{fill:none;stroke:#F7F8F8;stroke-miterlimit:10;}
</style>
<g id="XMLID_2_">
	<path id="XMLID_22_" class="st0" d="M25.3,394.8c-13.7,0-24.8-11.1-24.8-24.8V25.3c0-13.7,11.1-24.8,24.8-24.8h510.4
		c13.7,0,24.8,11.1,24.8,24.8v344.6c0,13.7-11.1,24.8-24.8,24.8H25.3z"/>
	<path id="XMLID_19_" class="st0" d="M2.9,25.3c0-12.4,10.1-22.4,22.4-22.4h510.4c12.4,0,22.4,10.1,22.4,22.4v344.6
		c0,12.4-10.1,22.4-22.4,22.4H25.3c-12.4,0-22.4-10.1-22.4-22.4V25.3z"/>
	<rect id="XMLID_16_" x="50.4" y="23.2" class="st0" width="459.6" height="346.4"/>
	<path id="XMLID_15_" class="st0" d="M532.7,200.3c-1.8,0-3.3-1.5-3.3-3.3c0-1.8,1.5-3.3,3.3-3.3c1.8,0,3.3,1.5,3.3,3.3
		C536,198.8,534.5,200.3,532.7,200.3z"/>
	<path id="XMLID_14_" class="st0" d="M532.7,189.5c-0.9,0-1.6-0.7-1.6-1.6c0-0.9,0.7-1.6,1.6-1.6c0.9,0,1.6,0.7,1.6,1.6
		C534.3,188.8,533.6,189.5,532.7,189.5z"/>
	<path id="XMLID_13_" class="st0" d="M24.1,209.4c-6.8,0-12.3-5.5-12.3-12.3c0-6.8,5.5-12.3,12.3-12.3c6.8,0,12.3,5.5,12.3,12.3
		C36.4,203.9,30.9,209.4,24.1,209.4z"/>
	<path id="XMLID_10_" class="st0" d="M24.1,208.2c-6.1,0-11.1-5-11.1-11.1c0-6.1,5-11.1,11.1-11.1c6.1,0,11.1,5,11.1,11.1
		C35.2,203.2,30.3,208.2,24.1,208.2z"/>
	<path id="XMLID_9_" class="st0" d="M500.7,213.9c-0.8,0-1.5-0.7-1.5-1.5v-29.6c0-0.8,0.7-1.5,1.5-1.5l0,0c0.8,0,1.5,0.7,1.5,1.5
		v29.6C502.2,213.2,501.6,213.9,500.7,213.9L500.7,213.9z"/>
	<path id="XMLID_8_" class="st0" d="M61.8,213.9c-0.8,0-1.5-0.7-1.5-1.5v-29.6c0-0.8,0.7-1.5,1.5-1.5l0,0c0.8,0,1.5,0.7,1.5,1.5
		v29.6C63.3,213.2,62.6,213.9,61.8,213.9L61.8,213.9z"/>
</g>
</svg>
