<?xml version="1.0" encoding="utf-8"?>
<!-- Generator: Adobe Illustrator 19.0.0, SVG Export Plug-In . SVG Version: 6.00 Build 0)  -->
<svg version="1.0" id="图层_1" xmlns="http://www.w3.org/2000/svg" xmlns:xlink="http://www.w3.org/1999/xlink" x="0px" y="0px"
	 viewBox="0 0 500 150" enable-background="new 0 0 500 150" xml:space="preserve">
<g id="XMLID_2_">
	<path id="XMLID_21_" fill="none" stroke="#F7F8F8" stroke-width="4" stroke-miterlimit="10" d="M26.162,115.703
		c-0.367-4.734-0.735-7.836-1.094-9.297c0-1.094,0-1.82,0-2.188c0.359-7.289,0-14.578-1.094-21.875c0-0.727-0.188-1.641-0.547-2.734
		c-0.367-1.453-0.547-2.734-0.547-3.828c-1.461,1.094-3.281,3.469-5.469,7.109c-0.735,1.461-1.282,2.375-1.641,2.734
		c-2.922,3.648-5.657,6.563-8.203,8.75c-0.735,0.734-1.282,1.094-1.641,1.094c-1.461,0-2.375-0.906-2.734-2.734
		c0-1.094,0.18-2,0.547-2.734c0.727-0.727,2-2,3.828-3.828c2.546-2.188,4.187-3.828,4.922-4.922
		c2.914-4.008,5.648-7.836,8.203-11.484c0-0.727,0.18-1.094,0.547-1.094c0-1.453,0.18-2.188,0.547-2.188
		c0-0.359,0.727-1.273,2.188-2.734c4.008-6.563,6.016-11.664,6.016-15.313c-0.735,0-1.829,0-3.281,0
		c-2.555,0.367-4.742,0.367-6.563,0c-1.094,1.094-2.922,1.641-5.469,1.641c-0.367,0-1.282,0-2.734,0
		c-1.461,0.367-2.375,0.547-2.734,0.547c-1.094-0.359-1.829-1.273-2.188-2.734c1.094-1.82,9.109-3.461,24.063-4.922
		c3.64,0,5.469,1.461,5.469,4.375c0,2.188-1.461,5.657-4.375,10.391c-2.922,4.742-4.375,8.391-4.375,10.938
		c0,1.461,0.18,2.922,0.547,4.375l10.938-4.375h1.094c2.188,0,4.375,0.735,6.563,2.188c1.094,0.735,2.188,1.094,3.281,1.094
		c1.453,0,2.546-0.359,3.281-1.094c0.359,0,0.547,0.188,0.547,0.547c0,0.735-0.367,1.461-1.094,2.188
		c-0.735,0.367-1.094,0.735-1.094,1.094l-0.547,1.094v1.094c-0.367,0.367-0.547,0.734-0.547,1.094c-1.094,0-1.641,0.367-1.641,1.094
		c-0.367,0-0.914,0.914-1.641,2.734C44.935,85.813,41.107,90,36.005,94.375c-3.648,2.555-5.657,5.109-6.016,7.656v0.547
		c-0.367,0-0.547,0.188-0.547,0.547c0,1.094,0.359,2.734,1.094,4.922c0.359,2.555,0.547,4.375,0.547,5.469
		c-0.367,1.828-0.914,2.734-1.641,2.734l-1.641-0.547C27.067,115.703,26.521,115.703,26.162,115.703z M28.896,80.703h0.547
		c0,3.281,0,6.563,0,9.844v0.547c5.828-4.008,10.938-9.109,15.313-15.313c0-1.453-1.094-2.188-3.281-2.188
		C33.818,75.055,29.623,77.422,28.896,80.703z M52.412,98.75v-0.547c-0.367-0.727,0-1.273,1.094-1.641
		c4.375,0,11.117-1.273,20.234-3.828c0.727,0.367,2.367,0,4.922-1.094c2.188-0.727,3.64-1.094,4.375-1.094c1.094,0,2,0,2.734,0
		c1.094,0,2.188-0.18,3.281-0.547l1.641,0.547c3.281,0.734,4.922,1.828,4.922,3.281c-0.367,1.461-0.914,2.375-1.641,2.734
		c-1.094,0-2.008-0.359-2.734-1.094c-1.094,0-2.188,0-3.281,0c-4.016,0-9.664,1.094-16.953,3.281
		c-6.93,2.188-12.219,3.281-15.859,3.281C53.317,102.031,52.412,100.938,52.412,98.75z M82.49,110.781
		c1.453,0,3.093,1.828,4.922,5.469c2.546,4.375,4.734,6.563,6.563,6.563h0.547l0.547-1.094c1.453-2.188,2-3.641,1.641-4.375
		c1.82-4.375,3.64-10.938,5.469-19.688c0.727-3.281,1.273-5.828,1.641-7.656c0-1.453,0.359-3.461,1.094-6.016
		c1.094-3.641,1.641-6.375,1.641-8.203c0-1.094-0.367-2.546-1.094-4.375c-0.735-2.914-0.914-4.922-0.547-6.016L81.396,75.781
		c-1.094,0.367-2.734,1.828-4.922,4.375c-1.829,2.555-3.281,4.016-4.375,4.375c-1.094,0.367-1.829-0.727-2.188-3.281
		c0-0.359,0-0.906,0-1.641c5.102-6.921,7.468-17.859,7.109-32.813c0-2.546,0-5.102,0-7.656c-0.735-1.453-1.461-2-2.188-1.641
		c-0.735,0-1.641,0.367-2.734,1.094c-0.735,0.367-1.282,0.547-1.641,0.547c-3.648-1.453-6.016-3.093-7.109-4.922
		c0-0.359,0.547-1.094,1.641-2.188c1.453,0,2.914,0,4.375,0c1.453,0,3.281,0.188,5.469,0.547c2.546,0.367,4.375,0.547,5.469,0.547
		s2.734-0.18,4.922-0.547c2.188,0,3.828,0,4.922,0c0.359,0,0.727,0,1.094,0c7.289-0.359,10.75,1.461,10.391,5.469
		c0,1.461-0.914,4.922-2.734,10.391c-0.735,2.555-1.094,4.016-1.094,4.375L92.88,64.297c-0.735,0.735-1.094,1.641-1.094,2.734h0.547
		l7.109-2.734c1.82-1.82,4.375-2.914,7.656-3.281c1.094,0,2.188,0.367,3.281,1.094c-0.367,1.829-0.188,4.375,0.547,7.656
		c0.359,2.555,0.547,4.563,0.547,6.016c0,1.094,0,1.828,0,2.188c-0.367,2.188-1.094,5.836-2.188,10.938l-0.547,0.547
		c-0.367,2.555-1.094,6.203-2.188,10.938c-1.094,5.109-1.829,8.938-2.188,11.484c-0.735,0.367-1.641,2.375-2.734,6.016
		c-1.829,6.563-4.375,9.844-7.656,9.844C88.864,125.905,85.036,120.266,82.49,110.781z M82.49,38.594
		c0,8.391-0.188,14.586-0.547,18.594c0,1.094-0.367,3.281-1.094,6.563c-1.094,4.016-1.641,6.75-1.641,8.203h0.547
		c1.82-1.094,3.64-1.82,5.469-2.188v-0.547c0-0.727-0.188-1.453-0.547-2.188c-0.367-0.727-0.547-1.273-0.547-1.641
		c0-1.094,0.359-1.641,1.094-1.641h0.547l0.547,0.547c3.281-3.281,6.563-11.843,9.844-25.703c0.359-0.727,0-1.094-1.094-1.094
		H83.037L82.49,38.594z"/>
	<path id="XMLID_27_" fill="none" stroke="#F7F8F8" stroke-width="4" stroke-miterlimit="10" d="M182.305,117.891
		c0-2.188,0.18-5.102,0.547-8.75c0.359-4.008,0.547-6.922,0.547-8.75c0.359-4.008,0.18-7.656-0.547-10.938
		c-0.367-3.281-0.914-7.289-1.641-12.031c-0.367-2.188-0.734-4.008-1.094-5.469l-0.547-0.547c-0.734,0.735-1.094,1.282-1.094,1.641
		c-0.734,2.188-2.375,5.836-4.922,10.938l-16.953,29.531c-0.734,2.555-2.188,4.742-4.375,6.563
		c-1.094-0.359-1.828-1.094-2.188-2.188c1.094-5.828,3.641-10.938,7.656-15.313c1.453-2.547,3.461-6.016,6.016-10.391
		c5.828-9.109,9.297-16.586,10.391-22.422v-0.547c0,0.735-0.547,1.094-1.641,1.094v-0.547c0-0.359,0.727-1.641,2.188-3.828
		c2.188-2.914,3.461-4.922,3.828-6.016c0.727-2.546,1.453-6.742,2.188-12.578c0-0.359,0-0.727,0-1.094c-1.094,0-2.188,0-3.281,0
		c-2.555,0-6.383,0.367-11.484,1.094c-5.109,0.367-8.75,0.547-10.938,0.547c-1.094-0.359-1.828-1.273-2.188-2.734
		c0.359-1.453,1.641-2.367,3.828-2.734c0.359-0.359,1.82-0.359,4.375,0c2.547,0,6.375-0.18,11.484-0.547
		c10.203-0.359,17.859-0.727,22.969-1.094c1.094,0,2.547-0.359,4.375-1.094c3.281-0.727,5.648-1.094,7.109-1.094
		c0.359,0,0.727,0,1.094,0c0.727,0,1.094,0.367,1.094,1.094v0.547c-1.094,2.188-3.828,4.016-8.203,5.469
		c-2.555,1.094-4.375,2.008-5.469,2.734c-1.461,0.367-3.648,1.282-6.563,2.734c-1.094,0.367-2.008,0.735-2.734,1.094
		c0,0.367-0.367,1.641-1.094,3.828c-0.367,2.188-0.734,3.469-1.094,3.828c0,0.735-0.188,1.461-0.547,2.188
		c-0.367,0.367-0.547,0.735-0.547,1.094c0,2.922,0.727,5.469,2.188,7.656l2.734,14.219c0.359-0.359,0.727-1.094,1.094-2.188
		c0.359-0.727,0.547-1.273,0.547-1.641c1.453-3.641,5.102-5.469,10.938-5.469c3.281,0,8.016,0.914,14.219,2.734
		c1.82,0.367,3.094,0.734,3.828,1.094c4.008,0.367,6.375,0.734,7.109,1.094c0.727,0,2.547,0.734,5.469,2.188
		c0.359,0.367,0.547,0.914,0.547,1.641c-0.367,2.188-1.641,3.469-3.828,3.828c-0.367,0-0.734-0.547-1.094-1.641
		c-0.367-0.727-0.914-1.273-1.641-1.641c-0.734,0-2.008-0.359-3.828-1.094c-2.922-1.094-5.109-1.453-6.563-1.094l-9.844-2.188
		c-0.367,0-0.914-0.18-1.641-0.547h-1.094c-7.297,0.367-11.484,2.375-12.578,6.016c0,0.734,0,1.461,0,2.188
		c0,0.734-0.188,1.461-0.547,2.188v24.063c0,1.828-1.281,4.016-3.828,6.563h-0.547C183.031,121.172,182.305,120.078,182.305,117.891
		z M192.148,45.703c-0.367,0-1.094,0-2.188,0c-2.922-0.359-4.375,0.367-4.375,2.188c4.008-0.359,6.195-0.906,6.563-1.641V45.703z"/>
	<path id="XMLID_30_" fill="none" stroke="#F7F8F8" stroke-width="4" stroke-miterlimit="10" d="M276.105,131.016
		c0-0.735,0-1.282,0-1.641c0.727-3.648,1.82-9.297,3.281-16.953c3.281-14.945,4.922-26.609,4.922-35
		c-0.367-13.125-3.281-19.867-8.75-20.234h-0.547c-6.563,10.211-10.758,16.953-12.578,20.234l-1.094,1.094
		c-2.922,4.016-4.742,6.016-5.469,6.016c-0.734,0-1.281-0.727-1.641-2.188c0-1.453,1.273-3.461,3.828-6.016
		c0.727-1.094,1.273-1.82,1.641-2.188c0-0.727,0.547-1.641,1.641-2.734c1.094-2.546,3.281-6.016,6.563-10.391
		c5.469-7.656,8.563-13.672,9.297-18.047c0-0.359,0-1.094,0-2.188c0-3.281,1.094-4.922,3.281-4.922c0.727,0,1.094,0.188,1.094,0.547
		c0.359,0,0.547,0.735,0.547,2.188c0,2.188-0.547,4.922-1.641,8.203c0.359-0.359,0.359-0.18,0,0.547
		c-0.734,0.735-1.461,2.188-2.188,4.375c0,0.367-0.188,0.914-0.547,1.641c0,0.367,0.906,1.094,2.734,2.188
		c2.547,1.461,4.008,2.555,4.375,3.281c2.547,3.281,3.641,8.57,3.281,15.859c0,7.297-1.094,17.688-3.281,31.172
		c0,1.461-0.367,3.648-1.094,6.563c-0.734,4.375-1.094,7.656-1.094,9.844c1.094-0.359,1.453,0,1.094,1.094
		c0,0.734-0.188,1.281-0.547,1.641c-0.367,0-0.547,0.18-0.547,0.547c0,5.469-1.641,8.203-4.922,8.203
		C276.652,133.75,276.105,132.836,276.105,131.016z M322.043,74.688c-0.367,0-0.914,0-1.641,0c-0.734,0.367-1.461,0.547-2.188,0.547
		c-1.828,0-2.734-0.906-2.734-2.734c0-0.359,0-0.727,0-1.094l6.016-3.281v-0.547c-0.367-1.453-0.914-3.64-1.641-6.563
		c-2.188-8.015-3.102-14.031-2.734-18.047c-0.367,0-0.914,0-1.641,0c-6.93,0.367-10.391-0.547-10.391-2.734v-1.094
		c2.547-1.094,6.375-1.641,11.484-1.641c0.727,0,2.188,0.188,4.375,0.547l1.094,0.547c1.094,0,2.734,0,4.922,0
		c6.922,0,11.664-0.18,14.219-0.547c2.914-0.727,6.195-1.453,9.844-2.188h1.094c1.82,0,2.734,0.735,2.734,2.188
		c0,2.555-2.375,3.469-7.109,2.734l-3.281,0.547c-2.188,0.735-3.469,1.094-3.828,1.094c-12.031,0.367-18.234,0.735-18.594,1.094
		c0,0.735,0.18,1.829,0.547,3.281c0.359,1.094,0.547,1.829,0.547,2.188c0,0.367,0.18,1.282,0.547,2.734v1.094
		c0.359,0,0.547,0.188,0.547,0.547c0.727,0,1.641-0.359,2.734-1.094c1.094-0.727,1.82-1.094,2.188-1.094
		c2.547-0.359,5.828-0.547,9.844-0.547c1.453,0,2.914,0,4.375,0c1.094,0.367,1.453,1.094,1.094,2.188
		c0,1.829-1.094,3.828-3.281,6.016c-1.461,1.829-2.375,3.281-2.734,4.375c0,0.367,0.18,0.914,0.547,1.641c0,0.367,0,0.735,0,1.094
		c0,1.094-1.641,2.008-4.922,2.734c-2.555,0.367-4.016,0.914-4.375,1.641c-0.734,0.367-1.094,1.461-1.094,3.281
		c-0.367,2.188-1.281,3.469-2.734,3.828c-0.734-1.094-1.641-2-2.734-2.734H322.043z M346.105,133.75l-3.828-8.203L341.73,125h0.547
		c0-0.727,0-1.273,0-1.641c1.453,0.734,2.547,1.641,3.281,2.734c0.359,0.727,0.727,1.273,1.094,1.641
		c0.727-0.367,1.094-1.282,1.094-2.734c0.727-2.914,0.727-7.469,0-13.672c-0.367-1.82-0.547-3.094-0.547-3.828
		c-0.734-8.383-2.188-12.758-4.375-13.125h-0.547c-1.094,0.367-2.734,0.734-4.922,1.094c-4.016,1.094-7.109,1.828-9.297,2.188
		h-0.547c-0.367,0-2.008,0.547-4.922,1.641c-2.922,0.734-4.742,1.281-5.469,1.641c-0.367,0-1.094,0.188-2.188,0.547
		c-3.281,0.367-5.836,0.914-7.656,1.641c-1.094-0.359-1.828-1.273-2.188-2.734c0-1.094,1.273-2,3.828-2.734
		c2.188-0.359,3.281-1.094,3.281-2.188v-0.547l-4.922-16.953c0.359-0.359,0.359-0.727,0-1.094l-0.547-0.547
		c0-1.094,1.094-1.641,3.281-1.641c2.914,0.367,4.375,0.914,4.375,1.641c0,0.367-0.188,0.734-0.547,1.094
		c-0.367,0.367-0.547,0.734-0.547,1.094c0,0.367,0.18,0.914,0.547,1.641l2.734,12.578c-0.367,0.734,0,1.461,1.094,2.188
		c0.359,0,0.906-0.547,1.641-1.641c0.727,0,1.094,0.188,1.094,0.547c0.359,0,0.906,0,1.641,0c1.453,0,3.828-0.359,7.109-1.094
		c1.453-0.359,2.547-0.547,3.281-0.547c0.359,0,1.094-0.18,2.188-0.547c4.008-0.727,6.563-1.453,7.656-2.188
		c0.727-0.727,1.094-1.273,1.094-1.641c1.82-1.094,4.734-2.188,8.75-3.281l6.016-6.016c0.359-0.727,0.547-1.453,0.547-2.188v-0.547
		c-0.367,0-2.188,0.547-5.469,1.641c-3.281,0.734-5.289,1.281-6.016,1.641c-6.93,1.461-14.039,3.281-21.328,5.469
		c-1.461,0.367-2.375,1.094-2.734,2.188c-0.367,1.094-0.914,1.828-1.641,2.188l-0.547,0.547c-0.734,0-1.281-1.273-1.641-3.828
		c0.359-2.188,2.188-4.008,5.469-5.469l20.234-4.922h0.547l15.313-4.375c0.727-0.359,1.273-0.547,1.641-0.547
		c1.453,0,2.188,0.367,2.188,1.094c0,0.367,0,0.914,0,1.641c0,2.922-1.461,6.016-4.375,9.297c-1.461,1.461-2.555,2.734-3.281,3.828
		h0.547h0.547c4.375-1.094,8.383-2.188,12.031-3.281h0.547c1.453,0.367,2.188,0.914,2.188,1.641
		c-0.734,2.922-3.102,4.375-7.109,4.375l-15.313,3.828c0,0.367,0,0.914,0,1.641c0,2.555,0.547,6.383,1.641,11.484
		c0.727,5.109,1.094,8.938,1.094,11.484c-0.367,10.202-2.008,16.218-4.922,18.046L346.105,133.75z M322.59,16.172
		c-2.188-0.359-3.469-2.546-3.828-6.563c0-0.727,0-1.273,0-1.641l0.547-0.547c0.727-1.094,1.273-1.453,1.641-1.094
		c1.094,0.367,1.82,1.282,2.188,2.734c0.359,1.094,0.727,1.829,1.094,2.188l11.484,11.484c4.008,1.829,6.563,5.657,7.656,11.484
		v1.094c-0.367,0.735-0.547,1.282-0.547,1.641h-1.094c-1.094,0-2.008-1.094-2.734-3.281c-0.367-1.82-0.734-2.914-1.094-3.281
		c-1.461-1.82-4.016-4.187-7.656-7.109C326.598,20,324.043,17.633,322.59,16.172z M326.965,59.922c0,2.922,0.727,4.375,2.188,4.375
		c5.102-1.453,8.383-4.555,9.844-9.297c-0.367,0-0.914,0-1.641,0c-0.367,0-1.641,0-3.828,0c-2.188,0.367-3.469,0.547-3.828,0.547
		C327.512,56.641,326.598,58.102,326.965,59.922z"/>
	<path id="XMLID_36_" fill="none" stroke="#F7F8F8" stroke-width="4" stroke-miterlimit="10" d="M427.327,114.063h-0.547
		l-7.109,7.109h-1.094c-1.828,0-2.922-1.094-3.281-3.281c0-1.453,0.727-2.188,2.188-2.188c1.094-0.359,1.82-0.727,2.188-1.094
		c1.094-1.094,2.188-2.188,3.281-3.281c0.359-0.359,0.727-0.906,1.094-1.641l1.094-1.094c0-0.359-0.188-0.547-0.547-0.547
		l-0.547-0.547c0-0.359,0.359-1.273,1.094-2.734c0.727-0.727,1.453-1.094,2.188-1.094c1.094,0,1.82-0.18,2.188-0.547
		c1.094-0.727,2.547-2.367,4.375-4.922c0.359-0.359,0.547-0.727,0.547-1.094c1.453-1.82,2.547-3.281,3.281-4.375
		c-1.828,0.367-4.563,1.094-8.203,2.188c-3.648,1.094-6.383,1.828-8.203,2.188c-1.461-0.359-2.188-1.273-2.188-2.734
		c0-1.82,1.273-2.734,3.828-2.734c1.094-0.359,2.914-0.727,5.469-1.094L429.515,90c0-0.359-0.367-0.727-1.094-1.094
		c0.359-0.359,0.727-0.727,1.094-1.094c0-0.359-0.367-0.547-1.094-0.547c0-2.547,0-4.922,0-7.109c0-0.727,0-1.273,0-1.641
		c0.359-0.359,0.547-1.273,0.547-2.734c0-1.094-0.367-2.367-1.094-3.828c-0.367-1.094-0.547-2-0.547-2.734
		c0-0.727,0.359-1.641,1.094-2.734c0.727-1.453,1.094-2.367,1.094-2.734c0-1.82-0.367-4.555-1.094-8.203
		c-1.094-5.102-1.461-8.93-1.094-11.484l-0.547-1.094c-2.555,3.648-5.109,5.469-7.656,5.469c-2.555-0.359-4.016-1.82-4.375-4.375
		c0-0.727,0.359-1.82,1.094-3.281c0.727-1.094,1.094-2,1.094-2.734l0.547-0.547c1.453-4.734,3.828-6.921,7.109-6.563
		c1.82-0.359,3.094,0.367,3.828,2.188l1.094-1.094c0.359-0.727,1.094-2.367,2.188-4.922c1.453-2.546,2.188-4.008,2.188-4.375
		l0.547-0.547c1.094-1.453,2-2.188,2.734-2.188c1.453,0,2.188,0.547,2.188,1.641c0,2.922-1.461,6.563-4.375,10.938l-0.547,0.547
		l-1.094,1.094c-1.461,1.461-2.375,2.555-2.734,3.281c0.359,2.188,0.727,3.648,1.094,4.375h0.547
		c3.281-4.008,9.477-7.109,18.594-9.297c0.359,0,1.273,0,2.734,0c1.453-0.359,2.547-0.547,3.281-0.547c0.359,0,0.727,0,1.094,0
		c5.102,0.735,7.469,3.469,7.109,8.203c0,2.555-0.367,6.563-1.094,12.031c-0.367,2.555-0.547,4.563-0.547,6.016
		c0,0.367,0,1.641,0,3.828c-0.367,4.375-0.547,6.93-0.547,7.656c0,3.648-0.367,7.109-1.094,10.391c0,0.367,0,2.008,0,4.922
		c-0.367,2.922-0.547,4.563-0.547,4.922c-0.734,5.109-2.375,7.844-4.922,8.203c-2.922-0.359-5.109-3.281-6.563-8.75
		c-2.188,0.367-6.016,3.828-11.484,10.391c-1.461,1.461-3.648,4.016-6.563,7.656v2.734c0.359,1.094,1.453,3.648,3.281,7.656
		c0.727,1.461,2.188,2.922,4.375,4.375c1.094,1.094,1.82,1.828,2.188,2.188c0.727,0,2.188,0.188,4.375,0.547
		c4.375,0.727,7.469,1.094,9.297,1.094c8.75-0.367,13.852-0.914,15.313-1.641c-0.367-1.094-1.461-2.188-3.281-3.281
		c-2.555-1.453-3.828-2.914-3.828-4.375h0.547l7.656,3.281c1.82-0.359,3.461,0.734,4.922,3.281c0,1.094-0.367,1.641-1.094,1.641
		c-1.461,3.64-6.93,5.28-16.406,4.922c-1.094,0-1.828,0-2.188,0c-14.219,0-22.969-3.281-26.25-9.844
		c-1.094-1.094-1.828-2.547-2.188-4.375c0-0.359-0.188-0.727-0.547-1.094C427.874,114.25,427.687,114.063,427.327,114.063z
		 M418.577,42.422c0,0.735,0.18,1.094,0.547,1.094c0.359-0.359,1.094-1.094,2.188-2.188c2.188-1.453,3.281-2.734,3.281-3.828
		s-0.914-1.641-2.734-1.641C420.03,36.227,418.937,38.414,418.577,42.422z M452.483,88.359c0,0.367,0,0.734,0,1.094l3.281,3.281
		c1.094-1.094,1.453-3.641,1.094-7.656c0-3.281,0.359-5.281,1.094-6.016c0-2.547,0.18-6.563,0.547-12.031
		c0.727-10.938,1.094-19.141,1.094-24.609c0-0.359,0-0.906,0-1.641c0.359-2.546-0.188-4.008-1.641-4.375
		c-10.578,0.735-18.414,3.648-23.516,8.75h-2.188c0,2.555,1.453,3.648,4.375,3.281c1.094,0,2.547-0.18,4.375-0.547
		c1.453,0,2.547,0,3.281,0c1.094,0,2.188,0,3.281,0c1.82,0.367,3.094,1.282,3.828,2.734c-1.094,1.094-1.828,1.641-2.188,1.641
		c-4.375,0-8.203,0.188-11.484,0.547c-2.555,0.367-3.828,0.735-3.828,1.094v11.484c0,1.461,0.359,2.008,1.094,1.641
		c1.453,0,3.641-0.547,6.563-1.641c2.914-1.094,5.102-1.641,6.563-1.641c1.453,0,2.188,0.735,2.188,2.188
		c-0.367,2.922-1.828,4.016-4.375,3.281c-0.367,0-2.188,0.547-5.469,1.641c-2.922,0.735-4.742,1.282-5.469,1.641
		c-0.367,0-0.734,0.188-1.094,0.547c0,1.461,0,2.922,0,4.375c-0.367,0.734-0.547,1.281-0.547,1.641c0,2.555,0.359,5.656,1.094,9.297
		h0.547c1.82,0,4.734-1.094,8.75-3.281c3.641-2.188,6.375-3.281,8.203-3.281c1.453,0,2.188,0.734,2.188,2.188
		c0,0.734-0.188,1.461-0.547,2.188C452.843,86.906,452.483,87.633,452.483,88.359z M442.093,107.5
		c0.359-1.82,1.094-2.914,2.188-3.281c1.094,0,2.914,0.547,5.469,1.641c2.547,1.094,4.555,1.641,6.016,1.641
		c5.102,0,11.844-2.547,20.234-7.656c0.359,0,0.906-0.359,1.641-1.094l1.641-1.094c0.359,0,1.094,0,2.188,0
		c2.188,0,4.008,0.547,5.469,1.641v0.547v0.547c0.359,0,1.094,0.188,2.188,0.547c4.734,0.734,7.109,1.641,7.109,2.734
		c0,1.828-1.281,2.734-3.828,2.734c-1.828,0-4.016-0.727-6.563-2.188c-2.555-1.094-4.375-1.641-5.469-1.641
		c-2.922,0.734-7.844,2.922-14.766,6.563c-3.648,1.828-7.297,2.734-10.938,2.734C446.28,111.875,442.093,110.422,442.093,107.5z"/>
</g>
</svg>
