<?xml version="1.0" encoding="utf-8"?>
<!-- Generator: Adobe Illustrator 19.0.0, SVG Export Plug-In . SVG Version: 6.00 Build 0)  -->
<svg version="1.0" id="图层_1" xmlns="http://www.w3.org/2000/svg" xmlns:xlink="http://www.w3.org/1999/xlink" x="0px" y="0px"
	 viewBox="0 0 500 150" enable-background="new 0 0 500 150" xml:space="preserve">
<g id="XMLID_1_">
	<path id="XMLID_3_" fill="none" stroke="#F7F8F8" stroke-width="4" stroke-miterlimit="10" d="M11.483,75.901
		c-0.683-8.799-1.016-17.266-1.016-25.391c0-1.016-0.175-2.198-0.508-3.555c-0.341-1.69-0.508-2.872-0.508-3.555
		c0-3.047,0.841-4.57,2.539-4.57c0.674,0,1.523,0.508,2.539,1.523c1.349,1.016,2.539,1.357,3.555,1.016v1.016
		c-2.031,0-3.222,1.19-3.555,3.555c0,0.683,0.167,1.523,0.508,2.539c0,1.357,0,2.373,0,3.047c0,0.341,0,1.016,0,2.031
		c-0.341,1.016-0.508,1.865-0.508,2.539c0,0.683,0.167,1.698,0.508,3.047c0,1.357,0,2.373,0,3.047c0,1.357,0,2.373,0,3.047
		c0,0.683-0.175,1.016-0.508,1.016c0,3.388,0.333,6.094,1.016,8.125c1.016,1.016,1.523,1.698,1.523,2.031
		c0,1.698-0.849,2.539-2.539,2.539c-1.016,0-1.698-0.674-2.031-2.031C12.157,76.584,11.816,76.243,11.483,75.901z M10.975,15.472
		c0-1.69,1.016-2.539,3.047-2.539c1.349,0,4.396,4.404,9.141,13.203l1.523,2.031c0,0.341,0.333,1.016,1.016,2.031
		c1.69,3.047,2.706,4.912,3.047,5.586c0.333,0.341,0.674,0.508,1.016,0.508c0.674,0.341,1.016,0.849,1.016,1.523
		c0,0.683-0.341,1.016-1.016,1.016c-2.031-0.333-4.063-1.856-6.094-4.57c-1.357-1.69-3.047-4.229-5.078-7.617
		c-2.031-3.721-3.729-6.26-5.078-7.617c-0.341-0.333-0.683-0.674-1.016-1.016C11.483,17.336,10.975,16.487,10.975,15.472z
		 M41.952,129.222c-4.745-2.372-9.141-5.078-13.203-8.125c-2.031-1.698-4.237-5.586-6.602-11.68v-3.555
		c2.031,2.031,3.721,5.42,5.078,10.156c0.333,0.342,1.016,0.85,2.031,1.523c3.047,2.706,5.586,4.396,7.617,5.078
		c4.396,2.031,7.109,3.214,8.125,3.555h4.063c0.333-0.341,0.841-0.849,1.523-1.523c4.063-5.078,6.094-13.028,6.094-23.867
		c0-2.705-0.175-5.244-0.508-7.617h-0.508c-1.357,0-3.222,0.342-5.586,1.016c-1.357,0.342-2.373,0.508-3.047,0.508
		c-3.047,0.342-6.094,0.508-9.141,0.508c-0.683,0-1.698,0.175-3.047,0.508c-2.714,0.683-4.745,1.016-6.094,1.016
		c-2.373,0-3.555-0.841-3.555-2.539c0-0.674,0.333-1.182,1.016-1.523c0.674,0,1.182-0.166,1.523-0.508
		c3.047-0.333,7.442-0.841,13.203-1.523c6.094-0.333,10.664-0.841,13.711-1.523c0-0.333,0-0.674,0-1.016
		c-1.016-5.411-2.88-8.458-5.586-9.141c-0.683,0-1.523,0.342-2.539,1.016c-1.016,0.342-1.698,0.508-2.031,0.508
		c-1.698,0-2.539-0.674-2.539-2.031c0-0.333,1.016-1.349,3.047-3.047c5.752-4.396,8.633-7.95,8.633-10.664
		c0-0.333-0.341-0.508-1.016-0.508H51.6c-2.373,2.031-4.063,3.222-5.078,3.555c-0.341,0-1.357,0.508-3.047,1.523
		c-2.031,1.016-3.222,1.698-3.555,2.031h-0.508c-0.341,0.341-0.683,0.508-1.016,0.508c-1.016-0.333-1.698-1.523-2.031-3.555
		c0-0.333,0.333-1.016,1.016-2.031c0.333-0.333,0.508-0.674,0.508-1.016c4.063-3.38,7.617-5.245,10.664-5.586
		c0.674,0,1.523,0,2.539,0c1.69-0.333,3.721-1.69,6.094-4.063c2.364-2.364,4.229-3.721,5.586-4.063l9.648-10.664
		c-1.016-0.674-2.031-1.016-3.047-1.016h-0.508l-22.344,4.57h-0.508c-0.341,0.341-0.683,0.508-1.016,0.508
		c-0.341,0-1.016,0.175-2.031,0.508C32.47,48.479,26.209,53.05,24.178,59.144c-1.016,0-1.523-0.508-1.523-1.523
		c0.333-4.737,1.523-7.784,3.555-9.141l10.664-5.586c1.016,0.341,2.706-0.167,5.078-1.523c2.706-1.349,4.737-1.856,6.094-1.523
		l19.805-3.555c0.674-0.333,1.182-0.508,1.523-0.508c5.411,0.341,8.125,1.698,8.125,4.063c-1.698,4.063-4.063,7.109-7.109,9.141
		c-5.761,5.761-10.331,9.648-13.711,11.68v0.508c0,0.341,0.167,1.016,0.508,2.031c0.333,1.357,0.508,2.373,0.508,3.047
		c0,1.357-1.016,3.222-3.047,5.586c-1.357,1.357-2.031,2.373-2.031,3.047c0,0.683,0.841,1.865,2.539,3.555
		c0.674,1.016,1.182,1.698,1.523,2.031c1.69,3.389,2.706,5.928,3.047,7.617c0.333,0,0.674,0,1.016,0
		c4.396,0,11.172-0.841,20.313-2.539c0.674,0,1.69-0.333,3.047-1.016c1.349-0.674,2.539-1.016,3.555-1.016
		c1.349,0,1.856,0.508,1.523,1.523c0,1.698-0.508,2.881-1.523,3.555c-0.683,0-1.19,0-1.523,0c-1.357,0-3.555,0.342-6.602,1.016
		c-3.047,0.683-5.419,1.19-7.109,1.523c-5.078-0.333-8.808,0.342-11.172,2.031c0,0.683,0,1.698,0,3.047
		c0.333,9.141-0.341,15.917-2.031,20.313c-3.047,9.474-6.776,14.386-11.172,14.727c-0.683,0-1.698-0.341-3.047-1.016
		C43.642,129.555,42.626,129.222,41.952,129.222z M37.889,29.183c-1.357-1.349-2.714-2.706-4.063-4.063l-1.016-1.523
		c-0.683-1.349-1.19-2.031-1.523-2.031c0-0.333-0.341-0.674-1.016-1.016c-0.683-1.349-1.016-2.198-1.016-2.539
		c0.333-1.349,1.016-2.031,2.031-2.031c1.349,0,3.047,1.523,5.078,4.57c0.333,1.016,0.674,1.698,1.016,2.031
		c1.349,1.016,2.539,2.206,3.555,3.555c0.333,0,0.674,0,1.016,0c1.349,0,3.047-1.016,5.078-3.047
		c1.349-1.016,2.198-1.523,2.539-1.523h0.508c-0.341,1.016-0.849,1.865-1.523,2.539c-1.016,0.683-1.698,1.357-2.031,2.031
		c-1.698,2.373-3.555,3.555-5.586,3.555c-0.341,0-0.849-0.167-1.523-0.508C38.73,29.183,38.222,29.183,37.889,29.183z
		 M58.202,24.104c1.349-1.016,1.856-2.364,1.523-4.063c0-1.349-1.19-2.031-3.555-2.031c-2.031,0-3.222,0.683-3.555,2.031
		l-0.508-0.508c0-0.674,0.508-1.182,1.523-1.523c0.674-0.333,1.016-0.674,1.016-1.016c0.333-0.333,0.508-0.841,0.508-1.523
		c0.674-1.69,1.856-2.539,3.555-2.539c3.721,0.683,5.919,2.539,6.602,5.586c0,3.729-3.388,8.466-10.156,14.219
		c-0.683,0.341-1.698,0.849-3.047,1.523c-2.031,1.357-3.729,2.031-5.078,2.031v-0.508c1.69-1.69,3.047-2.872,4.063-3.555
		l0.508-0.508C54.647,28.342,56.845,25.803,58.202,24.104z"/>
	<path id="XMLID_9_" fill="none" stroke="#F7F8F8" stroke-width="4" stroke-miterlimit="10" d="M173.983,93.167
		c-2.031-9.474-3.047-18.956-3.047-28.438h-1.016l-4.063,7.617c-0.683,0.341-1.19,1.357-1.523,3.047
		c-0.341,2.031-1.016,3.222-2.031,3.555c-0.683,1.016-2.714,4.912-6.094,11.68c-0.341,0.342-0.849,1.19-1.523,2.539
		c-5.761,11.514-9.823,17.266-12.188,17.266c-1.016,0-1.698-0.674-2.031-2.031c0.333-2.364,0.841-3.555,1.523-3.555
		c0.333,0,0.675,0.175,1.016,0.508c0.333,0,1.349-1.182,3.047-3.555l1.016-1.523c0-0.333,0.508-1.349,1.523-3.047
		c1.016-2.031,1.523-3.213,1.523-3.555c0.675-1.349,1.349-2.872,2.031-4.57l0.508-0.508c4.396-6.768,8.125-13.711,11.172-20.82
		c1.349-1.016,2.198-2.706,2.539-5.078c0-0.333-0.175-0.508-0.508-0.508c-7.45,2.031-13.203,3.047-17.266,3.047
		c-1.356,0-2.539,0-3.555,0c-1.016-0.674-1.523-1.856-1.523-3.555c-0.341-0.674,0.333-1.182,2.031-1.523
		c0.675,0.341,1.183,0.508,1.523,0.508c1.016-0.333,2.031-0.841,3.047-1.523h0.508c0.333,0,0.508,0.341,0.508,1.016
		c0.675,0,1.349,0,2.031,0c3.38,0,8.458-1.016,15.234-3.047c1.69-1.69,2.872-5.586,3.555-11.68h-24.375
		c-1.016-0.333-1.864-1.016-2.539-2.031c0-1.349,1.856-2.198,5.586-2.539c1.349,0,3.38,0,6.094,0
		c2.364,0.341,4.229,0.508,5.586,0.508c0.675,0.341,1.349,0.508,2.031,0.508c2.031,0,5.078-0.333,9.141-1.016
		c4.063-0.674,7.109-1.016,9.141-1.016c1.016,0,1.523,0.683,1.523,2.031c0,0.341-0.341,0.508-1.016,0.508
		c-0.683,0.341-1.016,0.683-1.016,1.016c0,1.016,2.031,2.031,6.094,3.047c2.706,0.683,4.063,1.19,4.063,1.523
		c-0.341,2.714-1.698,4.237-4.063,4.57c-2.372,1.357-6.094,3.047-11.172,5.078c0,0.683-0.508,1.016-1.523,1.016
		c0,0.341,0,1.698,0,4.063c-0.341,2.373-0.508,3.896-0.508,4.57c0.675,19.297,4.229,31.484,10.664,36.563
		c4.063,2.031,8.633,3.047,13.711,3.047c10.156-0.333,17.091-2.539,20.82-6.602c0-1.016,0.167-2.705,0.508-5.078
		c1.349-8.125,2.031-14.219,2.031-18.281c0-1.349,0-2.539,0-3.555c-0.683-0.333-1.19-1.182-1.523-2.539
		c0-1.349-0.175-2.198-0.508-2.539c0-0.333-0.175-0.674-0.508-1.016c-0.341-0.333-0.508-0.674-0.508-1.016h1.523
		c0.675,0.341,1.69,1.357,3.047,3.047c1.69,2.373,2.706,5.927,3.047,10.664c0,0.342-0.175,0.85-0.508,1.523c0,3.047,0,6.094,0,9.141
		c-0.341,8.808-3.222,14.219-8.633,16.25c-1.356,0.683-4.57,1.865-9.648,3.555h-0.508c-1.356,0.342-2.206,0.508-2.539,0.508
		c-1.016,0-2.88,0-5.586,0c-10.497,0.683-18.114-2.872-22.852-10.664c-0.341-0.674-0.849-1.856-1.523-3.555
		C175.166,95.032,174.658,93.85,173.983,93.167z M178.553,46.956c-0.683,0-1.864,2.031-3.555,6.094l-0.508,1.016h0.508
		c1.69-0.674,3.214-1.182,4.57-1.523c0.675-0.333,2.031-1.182,4.063-2.539v-0.508l-4.57-2.539H178.553z"/>
	<path id="XMLID_12_" fill="none" stroke="#F7F8F8" stroke-width="4" stroke-miterlimit="10" d="M258.788,103.323
		c-0.683-0.333-1.016-1.016-1.016-2.031c0-0.674,0.167-1.349,0.508-2.031c0.675,0,2.539-0.166,5.586-0.508c3.047,0,4.903,0,5.586,0
		h1.016c0.333,0,1.69-0.166,4.063-0.508l3.555-0.508c9.141-0.333,13.878-0.841,14.219-1.523v-0.508c0-0.333-0.508-1.349-1.523-3.047
		c-4.063-7.442-6.269-11.846-6.602-13.203c-3.047-4.396-6.602-8.633-10.664-12.695l-0.508-1.016c0.333-1.016,1.349-1.69,3.047-2.031
		c2.706,0,5.586,3.047,8.633,9.141c1.69,4.063,3.214,6.436,4.57,7.109c0.675,1.016,1.349,2.539,2.031,4.57
		c1.69,3.047,2.872,5.586,3.555,7.617c0.675,1.357,1.183,2.373,1.523,3.047h2.031l11.172-2.539v-0.508l-0.508-1.016
		c-0.683-0.333-1.19-0.674-1.523-1.016c0-0.674-0.175-1.349-0.508-2.031c0-0.333-0.175-1.016-0.508-2.031
		c0-1.016-0.175-2.539-0.508-4.57c-0.683-13.536-2.372-23.692-5.078-30.469c-0.341-1.016-0.849-2.364-1.523-4.063
		c-1.698-3.047-2.539-5.411-2.539-7.109c0-1.349,1.016-2.031,3.047-2.031c0.333,0,0.675,0.175,1.016,0.508
		c0.333,2.031,1.183,4.57,2.539,7.617c1.016,2.031,1.69,3.555,2.031,4.57v0.508c0.675,2.373,1.183,4.57,1.523,6.602
		c0,0.341,0.333,1.523,1.016,3.555c0.675,3.047,1.183,4.57,1.523,4.57h0.508c1.016-0.674,2.539-1.523,4.57-2.539
		c4.063-3.047,7.617-4.57,10.664-4.57c1.016,0,1.856,0,2.539,0c0.333,0.341,0.841,0.849,1.523,1.523
		c0,0.683-2.031,1.865-6.094,3.555c-8.466,4.063-12.695,7.617-12.695,10.664c0,1.357,0.333,3.389,1.016,6.094
		c0.333,2.714,0.508,4.745,0.508,6.094c0,1.016-0.341,2.031-1.016,3.047c-0.341,1.016-0.508,1.865-0.508,2.539h4.063
		c1.016-0.333,4.903-1.349,11.68-3.047c2.031-0.333,3.214-0.508,3.555-0.508c1.016,0,3.047-0.333,6.094-1.016
		c3.722-0.333,6.427-0.674,8.125-1.016c0.333,0,0.675,0,1.016,0c2.031,0,3.047,0.508,3.047,1.523
		c-0.683,2.714-1.523,4.237-2.539,4.57c-1.016-0.333-2.031-0.508-3.047-0.508c-0.683,0-1.523,0-2.539,0
		c-4.063,0-9.141,0.508-15.234,1.523c-1.356,0.683-4.063,1.19-8.125,1.523c-5.419,1.357-8.3,2.031-8.633,2.031
		c-1.016,0.342-2.372,0.85-4.063,1.523c-3.729,1.698-6.776,2.539-9.141,2.539l-0.508-0.508c-0.341,0-0.683,0-1.016,0
		c-3.388,0-8.3,0.508-14.727,1.523c-6.435,1.016-11.172,1.523-14.219,1.523C262.343,103.831,260.479,103.665,258.788,103.323z"/>
	<path id="XMLID_14_" fill="none" stroke="#F7F8F8" stroke-width="4" stroke-miterlimit="10" d="M387.265,107.894
		c-0.341-1.349,1.016-4.57,4.063-9.648c1.69-2.705,2.706-4.57,3.047-5.586c1.016-2.364,1.016-5.919,0-10.664
		c0-1.016,0-1.689,0-2.031c-0.341-3.38-1.016-5.919-2.031-7.617c-0.341-0.333-1.864-0.508-4.57-0.508c0-0.333-1.19-0.333-3.555,0
		h-1.016c-0.341,0-0.683-0.167-1.016-0.508c-2.714-0.333-4.063-1.016-4.063-2.031c0-1.349,1.69-2.198,5.078-2.539
		c3.722,0,6.261,0.341,7.617,1.016v-0.508c0-1.016-0.341-2.364-1.016-4.063c-0.683-2.031-1.016-3.38-1.016-4.063
		c0-1.016,0.841-1.523,2.539-1.523c0.333,0,0.675,0,1.016,0c0.333,0.683,1.016,1.523,2.031,2.539
		c0.675,0.683,1.016,1.19,1.016,1.523c0,0.341,0,1.016,0,2.031c-0.341,2.373,0.508,3.555,2.539,3.555
		c1.349,0,3.214-0.508,5.586-1.523c2.364-1.016,4.063-1.523,5.078-1.523c1.69,0.341,2.539,0.849,2.539,1.523
		c0,1.698-3.047,3.222-9.141,4.57c-3.388,0.341-5.078,0.849-5.078,1.523v0.508c0.333,2.373,0.675,5.928,1.016,10.664
		c0.333,2.031,0.508,3.729,0.508,5.078l1.016-0.508c0-0.333,2.706-3.555,8.125-9.648c1.016-1.349,1.69-2.198,2.031-2.539
		c0.333-0.333,0.675-0.674,1.016-1.016c1.349-1.349,2.539-2.539,3.555-3.555c0.675-0.674,0.841-1.349,0.508-2.031
		c0-0.333,0.167-0.674,0.508-1.016c0.675-0.674,1.523-1.523,2.539-2.539c2.706-2.364,4.57-4.396,5.586-6.094v0.508
		c0,0.683,0,1.523,0,2.539h1.016c1.016,0,2.872-0.333,5.586-1.016c1.349-0.333,2.198-0.508,2.539-0.508
		c2.031-0.333,4.063-1.016,6.094-2.031l0.508-0.508c-0.341-0.333-0.849-2.031-1.523-5.078c-1.698-6.094-3.222-9.141-4.57-9.141
		c-0.341,0-0.683,0-1.016,0c-0.341,0-2.372,0.175-6.094,0.508c-3.729,0.683-5.761,1.016-6.094,1.016h-0.508
		c-0.683,0-1.016-0.841-1.016-2.539c0-0.333,0-0.841,0-1.523c1.349-1.016,4.57-1.523,9.648-1.523c0.675,0,1.183,0,1.523,0
		c9.474-1.69,22.677-3.047,39.609-4.063c0.333,0,0.841,0,1.523,0l1.523,0.508c0.675,0,1.016,0.341,1.016,1.016
		c-0.341,1.357-0.849,2.206-1.523,2.539c-2.031,1.016-4.911,1.698-8.633,2.031c-2.031,0.341-3.555,0.683-4.57,1.016
		c-1.356,1.016-2.206,3.047-2.539,6.094l-5.586,7.617c0.333,0,0.675,0,1.016,0c2.031,0,4.737-0.508,8.125-1.523
		c3.722-1.016,6.427-1.523,8.125-1.523c2.031,0,3.047,0.341,3.047,1.016c0,0.683-0.175,1.19-0.508,1.523
		c-0.341,0-0.683,0.175-1.016,0.508c-2.031,3.047-5.253,4.57-9.648,4.57c0-0.333,0.167-1.016,0.508-2.031h-1.016
		c-1.016,0-2.372,0.175-4.063,0.508c-1.016,0.683-2.031,1.016-3.047,1.016c-0.341,0-1.016,0-2.031,0s-1.864,0.175-2.539,0.508
		c-0.341,0-1.19,0.341-2.539,1.016c-2.714,1.357-4.57,1.865-5.586,1.523l-13.711,4.063c-2.372-0.674-6.435,2.031-12.188,8.125
		c-0.341,0.683-0.683,1.19-1.016,1.523c-0.683,0.683-1.698,2.031-3.047,4.063c-3.729,4.404-6.094,7.617-7.109,9.648
		c-1.356,1.698-2.714,3.729-4.063,6.094l-0.508,0.508c-1.698,2.031-3.222,4.745-4.57,8.125c0,0.342,0,0.683,0,1.016
		c-0.683,2.373-1.864,3.555-3.555,3.555C388.28,109.759,387.598,108.909,387.265,107.894z M465.976,118.05
		c-8.125,0-12.87-3.047-14.219-9.141c-0.341-1.349-0.508-2.872-0.508-4.57c-0.341-1.016-0.508-1.689-0.508-2.031
		c-0.341,0-0.683,0.175-1.016,0.508c-0.341,0.342-0.683,0.508-1.016,0.508l-10.664,11.68c-1.016,1.016-2.206,1.523-3.555,1.523
		c-1.016,0-1.698-0.508-2.031-1.523c0-2.031,1.183-3.721,3.555-5.078c1.016-0.674,1.856-1.349,2.539-2.031l1.016-0.508
		c2.364-2.364,3.722-3.888,4.063-4.57c0.333-2.031,2.364-4.57,6.094-7.617c1.349-1.349,2.364-2.364,3.047-3.047
		c-0.341,0-0.683,0-1.016,0c-0.683,0-1.356,0.175-2.031,0.508c-0.683,0.683-1.356,1.016-2.031,1.016
		c-1.016,0.683-1.864,1.865-2.539,3.555c-0.341,1.698-1.19,2.881-2.539,3.555c-0.341,0-0.683-0.508-1.016-1.523
		c-0.683-1.016-1.356-1.523-2.031-1.523h-0.508c-0.341,0-1.016,0.342-2.031,1.016c-1.016,0-1.698-0.508-2.031-1.523
		c0-0.674,0.333-1.523,1.016-2.539c1.016-0.674,1.523-1.349,1.523-2.031c-1.016-4.736-2.372-9.474-4.063-14.219
		c-0.341-0.674-0.683-1.523-1.016-2.539c-1.016-1.69-1.523-3.047-1.523-4.063c0-0.674,0-1.182,0-1.523
		c1.016-0.333,1.69-0.508,2.031-0.508c1.349,0,2.364,1.016,3.047,3.047c0.675,1.357,1.349,2.206,2.031,2.539
		c-0.683-3.38,2.031-5.586,8.125-6.602c0.675-0.333,1.183-0.508,1.523-0.508c0.333-0.333,0.675-0.508,1.016-0.508
		c0.675-0.333,1.856-0.508,3.555-0.508c2.031-0.333,3.555-0.841,4.57-1.523c3.047-0.674,6.769-1.016,11.172-1.016
		c1.349,0,2.539,0,3.555,0c0.675,0,1.523,0.508,2.539,1.523c-0.341,1.016-0.508,1.698-0.508,2.031
		c-1.016,1.357-2.031,3.388-3.047,6.094c-0.341,0.341-1.016,1.016-2.031,2.031c-2.372,2.031-3.555,3.555-3.555,4.57
		c0,0.342,0.167,0.683,0.508,1.016c0.333,0.342,0.508,0.683,0.508,1.016c0,0.342-0.175,1.016-0.508,2.031
		c0.333-0.674,0.167-0.508-0.508,0.508l-9.648,10.664v0.508v0.508c0.333,1.016,0.508,2.881,0.508,5.586
		c0.333,4.404,1.016,7.451,2.031,9.141c2.706,1.357,4.396,2.031,5.078,2.031c0.333,0,1.183,0,2.539,0
		c15.567-4.063,24.2-9.141,25.898-15.234c0-0.674-0.341-1.689-1.016-3.047c-0.683-1.016-1.016-1.689-1.016-2.031
		c0-1.349,0.508-2.031,1.523-2.031l1.016,0.508l0.508,0.508c2.706,1.698,4.063,3.555,4.063,5.586c0,2.373-1.864,5.253-5.586,8.633
		C481.035,114.329,472.744,118.05,465.976,118.05z M443.124,36.8c0-0.333,0.167-0.841,0.508-1.523c0-0.674,0-1.349,0-2.031v-1.016
		l-10.664-7.109c-1.016-0.674-1.523-1.523-1.523-2.539s0.841-1.523,2.539-1.523c5.753,2.373,10.156,6.094,13.203,11.172
		c0.333,3.388-0.683,5.078-3.047,5.078C443.799,36.975,443.457,36.8,443.124,36.8z M441.093,86.565c0,0.342,0,0.683,0,1.016
		c-0.341,2.373,0,3.555,1.016,3.555c0.333-0.333,0.508-0.674,0.508-1.016h0.508c0.333,0,0.675,0,1.016,0
		c0.675-0.333,1.69-0.674,3.047-1.016c5.078-1.689,8.458-3.213,10.156-4.57c0.333-0.333,0.675-0.841,1.016-1.523l0.508-1.016
		l7.109-10.156c1.016-1.016,1.523-1.69,1.523-2.031c0-0.333-0.175-0.508-0.508-0.508c-1.016,0-2.031,0-3.047,0
		c-10.497,0.683-17.948,2.373-22.344,5.078c-0.341,0.683-0.508,1.865-0.508,3.555c-1.356,0-2.031-0.166-2.031-0.508
		c0-0.674-0.175-1.182-0.508-1.523c0,0.683,0,1.19,0,1.523v0.508c-0.341,1.698,0,2.539,1.016,2.539h0.508
		c2.706-1.016,4.229-1.523,4.57-1.523c2.706-0.333,5.078-0.508,7.109-0.508c1.016,0,2.031,0,3.047,0
		c1.016,0.683,1.856,1.357,2.539,2.031c-1.016,0.342-1.523,1.016-1.523,2.031C446.338,83.519,441.426,84.876,441.093,86.565z
		 M441.601,55.589c0.675,0.683,1.183,1.016,1.523,1.016h0.508c3.38-3.047,6.094-6.427,8.125-10.156
		c0.333-0.333,0.675-0.841,1.016-1.523c0.333-1.349,1.349-2.364,3.047-3.047V41.37c-2.031,0.683-4.063,1.016-6.094,1.016
		c-6.435,0.341-9.648,1.523-9.648,3.555c0,1.016,0.333,2.714,1.016,5.078C441.426,53.391,441.601,54.915,441.601,55.589z"/>
</g>
</svg>
